<?xml version="1.0" encoding="UTF-8" standalone="no"?>
<svg viewBox="0 0 1936 1583"
     preserveAspectRatio="xMidYMid meet"
     version="1.1"
     baseProfile="full"
     xmlns="http://www.w3.org/2000/svg"
     xmlns:xlink="http://www.w3.org/1999/xlink"
     xmlns:ev="http://www.w3.org/2001/xml-events"
     xml:space="preserve">
<title>mux_marshalling</title>
<desc>Nlview schematic (SVG)</desc>
<clipPath id="clippingbbox">
<rect x="0" y="0" width="1936" height="1583" />
</clipPath>
<g stroke="#19b400"
   stroke-width="1"
   stroke-linecap="butt"
   stroke-linejoin="miter"
   stroke-miterlimit="4"
   stroke-dasharray="none"
   stroke-dashoffset="0"
   fill="none"
   font-family="Helvetica"
   font-style="normal"
   font-size="12"
   writing-mode="lr-tb"
   cursor="crosshair"
   clip-path="url(#clippingbbox)">
<path d="M0 0h1936v1584h-1936z" stroke="none" fill="white" />
<g stroke="black">
<path d="M103 1074l-7 7h-14v-14h14z" />
<text x="78" y="1074" fill="black" stroke-width="0" text-anchor="end" dy="4.4">clk</text>
<path d="M103 1224l-7 7h-14v-14h14z" />
<text x="78" y="1224" fill="black" stroke-width="0" text-anchor="end" dy="4.4">rst</text>
<path d="M103 1384l-7 7h-14v-14h14z" />
<text x="78" y="1384" fill="black" stroke-width="0" text-anchor="end" dy="4.4">serial_in</text>
<path d="M153 1174h60v20h-60z" stroke="none" fill="#ffffcc" />
<path d="M153 1174h60v20h-60z" />
<text x="183" y="1172" fill="black" stroke-width="0" text-anchor="middle" dy="-1.6">cnt[0]_i_1</text>
<text x="183" y="1196" fill="black" stroke-width="0" text-anchor="middle" dy="9.6">LUT1</text>
<path d="M223 1184h-10" />
<text x="211" y="1184" fill="black" stroke-width="0" font-size="10" text-anchor="end" dy="3.66667">O</text>
<path d="M143 1184h10" />
<text x="155" y="1184" fill="black" stroke-width="0" font-size="10" dy="3.66667">I0</text>
<path d="M263 1094v-4" />
<path d="M255 1090h16" />
<path d="M293 1124h60v100h-60z" stroke="none" fill="#ffffcc" />
<path d="M293 1124h60v100h-60z" />
<path d="M293 1147l7 -3l-7 -3" />
<text x="323" y="1122" fill="black" stroke-width="0" text-anchor="middle" dy="-1.6">cnt_reg[0]</text>
<text x="323" y="1226" fill="black" stroke-width="0" text-anchor="middle" dy="9.6">FDRE</text>
<path d="M363 1174h-10" />
<text x="351" y="1174" fill="black" stroke-width="0" font-size="10" text-anchor="end" dy="3.66667">Q</text>
<path d="M283 1144h10" />
<text x="302" y="1144" fill="black" stroke-width="0" font-size="10" dy="3.66667">C</text>
<path d="M283 1164h10" />
<text x="295" y="1164" fill="black" stroke-width="0" font-size="10" dy="3.66667">CE</text>
<path d="M283 1184h10" />
<text x="295" y="1184" fill="black" stroke-width="0" font-size="10" dy="3.66667">D</text>
<path d="M283 1204h10" />
<text x="295" y="1204" fill="black" stroke-width="0" font-size="10" dy="3.66667">R</text>
<path d="M433 1314h60v40h-60z" stroke="none" fill="#ffffcc" />
<path d="M433 1314h60v40h-60z" />
<text x="463" y="1312" fill="black" stroke-width="0" text-anchor="middle" dy="-1.6">cnt[1]_i_1</text>
<text x="463" y="1356" fill="black" stroke-width="0" text-anchor="middle" dy="9.6">LUT2</text>
<path d="M503 1324h-10" />
<text x="491" y="1324" fill="black" stroke-width="0" font-size="10" text-anchor="end" dy="3.66667">O</text>
<path d="M423 1324h10" />
<text x="435" y="1324" fill="black" stroke-width="0" font-size="10" dy="3.66667">I0</text>
<path d="M423 1344h10" />
<text x="435" y="1344" fill="black" stroke-width="0" font-size="10" dy="3.66667">I1</text>
<path d="M583 1114v-4" />
<path d="M575 1110h16" />
<path d="M613 1144h60v100h-60z" stroke="none" fill="#ffffcc" />
<path d="M613 1144h60v100h-60z" />
<path d="M613 1167l7 -3l-7 -3" />
<text x="643" y="1142" fill="black" stroke-width="0" text-anchor="middle" dy="-1.6">cnt_reg[1]</text>
<text x="643" y="1246" fill="black" stroke-width="0" text-anchor="middle" dy="9.6">FDRE</text>
<path d="M683 1194h-10" />
<text x="671" y="1194" fill="black" stroke-width="0" font-size="10" text-anchor="end" dy="3.66667">Q</text>
<path d="M603 1164h10" />
<text x="622" y="1164" fill="black" stroke-width="0" font-size="10" dy="3.66667">C</text>
<path d="M603 1184h10" />
<text x="615" y="1184" fill="black" stroke-width="0" font-size="10" dy="3.66667">CE</text>
<path d="M603 1204h10" />
<text x="615" y="1204" fill="black" stroke-width="0" font-size="10" dy="3.66667">D</text>
<path d="M603 1224h10" />
<text x="615" y="1224" fill="black" stroke-width="0" font-size="10" dy="3.66667">R</text>
<path d="M773 1084h60v60h-60z" stroke="none" fill="#ffffcc" />
<path d="M773 1084h60v60h-60z" />
<text x="803" y="1082" fill="black" stroke-width="0" text-anchor="middle" dy="-1.6">cnt[2]_i_1</text>
<text x="803" y="1146" fill="black" stroke-width="0" text-anchor="middle" dy="9.6">LUT3</text>
<path d="M843 1114h-10" />
<text x="831" y="1114" fill="black" stroke-width="0" font-size="10" text-anchor="end" dy="3.66667">O</text>
<path d="M763 1094h10" />
<text x="775" y="1094" fill="black" stroke-width="0" font-size="10" dy="3.66667">I0</text>
<path d="M763 1114h10" />
<text x="775" y="1114" fill="black" stroke-width="0" font-size="10" dy="3.66667">I1</text>
<path d="M763 1134h10" />
<text x="775" y="1134" fill="black" stroke-width="0" font-size="10" dy="3.66667">I2</text>
<path d="M923 1184v-4" />
<path d="M915 1180h16" />
<path d="M953 1214h60v100h-60z" stroke="none" fill="#ffffcc" />
<path d="M953 1214h60v100h-60z" />
<path d="M953 1237l7 -3l-7 -3" />
<text x="983" y="1212" fill="black" stroke-width="0" text-anchor="middle" dy="-1.6">cnt_reg[2]</text>
<text x="983" y="1316" fill="black" stroke-width="0" text-anchor="middle" dy="9.6">FDRE</text>
<path d="M1023 1264h-10" />
<text x="1011" y="1264" fill="black" stroke-width="0" font-size="10" text-anchor="end" dy="3.66667">Q</text>
<path d="M943 1234h10" />
<text x="962" y="1234" fill="black" stroke-width="0" font-size="10" dy="3.66667">C</text>
<path d="M943 1254h10" />
<text x="955" y="1254" fill="black" stroke-width="0" font-size="10" dy="3.66667">CE</text>
<path d="M943 1274h10" />
<text x="955" y="1274" fill="black" stroke-width="0" font-size="10" dy="3.66667">D</text>
<path d="M943 1294h10" />
<text x="955" y="1294" fill="black" stroke-width="0" font-size="10" dy="3.66667">R</text>
<path d="M1153 54h60v100h-60z" stroke="none" fill="#ffffcc" />
<path d="M1153 54h60v100h-60z" />
<text x="1183" y="52" fill="black" stroke-width="0" text-anchor="middle" dy="-1.6">slv[0]_i_1</text>
<text x="1183" y="156" fill="black" stroke-width="0" text-anchor="middle" dy="9.6">LUT5</text>
<path d="M1223 104h-10" />
<text x="1211" y="104" fill="black" stroke-width="0" font-size="10" text-anchor="end" dy="3.66667">O</text>
<path d="M1143 64h10" />
<text x="1155" y="64" fill="black" stroke-width="0" font-size="10" dy="3.66667">I0</text>
<path d="M1143 84h10" />
<text x="1155" y="84" fill="black" stroke-width="0" font-size="10" dy="3.66667">I1</text>
<path d="M1143 104h10" />
<text x="1155" y="104" fill="black" stroke-width="0" font-size="10" dy="3.66667">I2</text>
<path d="M1143 124h10" />
<text x="1155" y="124" fill="black" stroke-width="0" font-size="10" dy="3.66667">I3</text>
<path d="M1143 144h10" />
<text x="1155" y="144" fill="black" stroke-width="0" font-size="10" dy="3.66667">I4</text>
<path d="M1153 224h60v100h-60z" stroke="none" fill="#ffffcc" />
<path d="M1153 224h60v100h-60z" />
<text x="1183" y="222" fill="black" stroke-width="0" text-anchor="middle" dy="-1.6">slv[1]_i_1</text>
<text x="1183" y="326" fill="black" stroke-width="0" text-anchor="middle" dy="9.6">LUT5</text>
<path d="M1223 274h-10" />
<text x="1211" y="274" fill="black" stroke-width="0" font-size="10" text-anchor="end" dy="3.66667">O</text>
<path d="M1143 234h10" />
<text x="1155" y="234" fill="black" stroke-width="0" font-size="10" dy="3.66667">I0</text>
<path d="M1143 254h10" />
<text x="1155" y="254" fill="black" stroke-width="0" font-size="10" dy="3.66667">I1</text>
<path d="M1143 274h10" />
<text x="1155" y="274" fill="black" stroke-width="0" font-size="10" dy="3.66667">I2</text>
<path d="M1143 294h10" />
<text x="1155" y="294" fill="black" stroke-width="0" font-size="10" dy="3.66667">I3</text>
<path d="M1143 314h10" />
<text x="1155" y="314" fill="black" stroke-width="0" font-size="10" dy="3.66667">I4</text>
<path d="M1153 404h60v100h-60z" stroke="none" fill="#ffffcc" />
<path d="M1153 404h60v100h-60z" />
<text x="1183" y="402" fill="black" stroke-width="0" text-anchor="middle" dy="-1.6">slv[2]_i_1</text>
<text x="1183" y="506" fill="black" stroke-width="0" text-anchor="middle" dy="9.6">LUT5</text>
<path d="M1223 454h-10" />
<text x="1211" y="454" fill="black" stroke-width="0" font-size="10" text-anchor="end" dy="3.66667">O</text>
<path d="M1143 414h10" />
<text x="1155" y="414" fill="black" stroke-width="0" font-size="10" dy="3.66667">I0</text>
<path d="M1143 434h10" />
<text x="1155" y="434" fill="black" stroke-width="0" font-size="10" dy="3.66667">I1</text>
<path d="M1143 454h10" />
<text x="1155" y="454" fill="black" stroke-width="0" font-size="10" dy="3.66667">I2</text>
<path d="M1143 474h10" />
<text x="1155" y="474" fill="black" stroke-width="0" font-size="10" dy="3.66667">I3</text>
<path d="M1143 494h10" />
<text x="1155" y="494" fill="black" stroke-width="0" font-size="10" dy="3.66667">I4</text>
<path d="M1153 604h60v100h-60z" stroke="none" fill="#ffffcc" />
<path d="M1153 604h60v100h-60z" />
<text x="1183" y="602" fill="black" stroke-width="0" text-anchor="middle" dy="-1.6">slv[3]_i_1</text>
<text x="1183" y="706" fill="black" stroke-width="0" text-anchor="middle" dy="9.6">LUT5</text>
<path d="M1223 654h-10" />
<text x="1211" y="654" fill="black" stroke-width="0" font-size="10" text-anchor="end" dy="3.66667">O</text>
<path d="M1143 614h10" />
<text x="1155" y="614" fill="black" stroke-width="0" font-size="10" dy="3.66667">I0</text>
<path d="M1143 634h10" />
<text x="1155" y="634" fill="black" stroke-width="0" font-size="10" dy="3.66667">I1</text>
<path d="M1143 654h10" />
<text x="1155" y="654" fill="black" stroke-width="0" font-size="10" dy="3.66667">I2</text>
<path d="M1143 674h10" />
<text x="1155" y="674" fill="black" stroke-width="0" font-size="10" dy="3.66667">I3</text>
<path d="M1143 694h10" />
<text x="1155" y="694" fill="black" stroke-width="0" font-size="10" dy="3.66667">I4</text>
<path d="M1153 754h60v100h-60z" stroke="none" fill="#ffffcc" />
<path d="M1153 754h60v100h-60z" />
<text x="1183" y="752" fill="black" stroke-width="0" text-anchor="middle" dy="-1.6">slv[4]_i_1</text>
<text x="1183" y="856" fill="black" stroke-width="0" text-anchor="middle" dy="9.6">LUT5</text>
<path d="M1223 804h-10" />
<text x="1211" y="804" fill="black" stroke-width="0" font-size="10" text-anchor="end" dy="3.66667">O</text>
<path d="M1143 764h10" />
<text x="1155" y="764" fill="black" stroke-width="0" font-size="10" dy="3.66667">I0</text>
<path d="M1143 784h10" />
<text x="1155" y="784" fill="black" stroke-width="0" font-size="10" dy="3.66667">I1</text>
<path d="M1143 804h10" />
<text x="1155" y="804" fill="black" stroke-width="0" font-size="10" dy="3.66667">I2</text>
<path d="M1143 824h10" />
<text x="1155" y="824" fill="black" stroke-width="0" font-size="10" dy="3.66667">I3</text>
<path d="M1143 844h10" />
<text x="1155" y="844" fill="black" stroke-width="0" font-size="10" dy="3.66667">I4</text>
<path d="M1153 934h60v100h-60z" stroke="none" fill="#ffffcc" />
<path d="M1153 934h60v100h-60z" />
<text x="1183" y="932" fill="black" stroke-width="0" text-anchor="middle" dy="-1.6">slv[5]_i_1</text>
<text x="1183" y="1036" fill="black" stroke-width="0" text-anchor="middle" dy="9.6">LUT5</text>
<path d="M1223 984h-10" />
<text x="1211" y="984" fill="black" stroke-width="0" font-size="10" text-anchor="end" dy="3.66667">O</text>
<path d="M1143 944h10" />
<text x="1155" y="944" fill="black" stroke-width="0" font-size="10" dy="3.66667">I0</text>
<path d="M1143 964h10" />
<text x="1155" y="964" fill="black" stroke-width="0" font-size="10" dy="3.66667">I1</text>
<path d="M1143 984h10" />
<text x="1155" y="984" fill="black" stroke-width="0" font-size="10" dy="3.66667">I2</text>
<path d="M1143 1004h10" />
<text x="1155" y="1004" fill="black" stroke-width="0" font-size="10" dy="3.66667">I3</text>
<path d="M1143 1024h10" />
<text x="1155" y="1024" fill="black" stroke-width="0" font-size="10" dy="3.66667">I4</text>
<path d="M1153 1094h60v100h-60z" stroke="none" fill="#ffffcc" />
<path d="M1153 1094h60v100h-60z" />
<text x="1183" y="1092" fill="black" stroke-width="0" text-anchor="middle" dy="-1.6">slv[6]_i_1</text>
<text x="1183" y="1196" fill="black" stroke-width="0" text-anchor="middle" dy="9.6">LUT5</text>
<path d="M1223 1144h-10" />
<text x="1211" y="1144" fill="black" stroke-width="0" font-size="10" text-anchor="end" dy="3.66667">O</text>
<path d="M1143 1104h10" />
<text x="1155" y="1104" fill="black" stroke-width="0" font-size="10" dy="3.66667">I0</text>
<path d="M1143 1124h10" />
<text x="1155" y="1124" fill="black" stroke-width="0" font-size="10" dy="3.66667">I1</text>
<path d="M1143 1144h10" />
<text x="1155" y="1144" fill="black" stroke-width="0" font-size="10" dy="3.66667">I2</text>
<path d="M1143 1164h10" />
<text x="1155" y="1164" fill="black" stroke-width="0" font-size="10" dy="3.66667">I3</text>
<path d="M1143 1184h10" />
<text x="1155" y="1184" fill="black" stroke-width="0" font-size="10" dy="3.66667">I4</text>
<path d="M1153 1314h60v100h-60z" stroke="none" fill="#ffffcc" />
<path d="M1153 1314h60v100h-60z" />
<text x="1183" y="1312" fill="black" stroke-width="0" text-anchor="middle" dy="-1.6">slv[7]_i_1</text>
<text x="1183" y="1416" fill="black" stroke-width="0" text-anchor="middle" dy="9.6">LUT5</text>
<path d="M1223 1364h-10" />
<text x="1211" y="1364" fill="black" stroke-width="0" font-size="10" text-anchor="end" dy="3.66667">O</text>
<path d="M1143 1324h10" />
<text x="1155" y="1324" fill="black" stroke-width="0" font-size="10" dy="3.66667">I0</text>
<path d="M1143 1344h10" />
<text x="1155" y="1344" fill="black" stroke-width="0" font-size="10" dy="3.66667">I1</text>
<path d="M1143 1364h10" />
<text x="1155" y="1364" fill="black" stroke-width="0" font-size="10" dy="3.66667">I2</text>
<path d="M1143 1384h10" />
<text x="1155" y="1384" fill="black" stroke-width="0" font-size="10" dy="3.66667">I3</text>
<path d="M1143 1404h10" />
<text x="1155" y="1404" fill="black" stroke-width="0" font-size="10" dy="3.66667">I4</text>
<path d="M1383 14v-4" />
<path d="M1375 10h16" />
<path d="M1433 44h60v100h-60z" stroke="none" fill="#ffffcc" />
<path d="M1433 44h60v100h-60z" />
<path d="M1433 67l7 -3l-7 -3" />
<text x="1463" y="42" fill="black" stroke-width="0" text-anchor="middle" dy="-1.6">slv_reg[0]</text>
<text x="1463" y="146" fill="black" stroke-width="0" text-anchor="middle" dy="9.6">FDRE</text>
<path d="M1503 94h-10" />
<text x="1491" y="94" fill="black" stroke-width="0" font-size="10" text-anchor="end" dy="3.66667">Q</text>
<path d="M1423 64h10" />
<text x="1442" y="64" fill="black" stroke-width="0" font-size="10" dy="3.66667">C</text>
<path d="M1423 84h10" />
<text x="1435" y="84" fill="black" stroke-width="0" font-size="10" dy="3.66667">CE</text>
<path d="M1423 104h10" />
<text x="1435" y="104" fill="black" stroke-width="0" font-size="10" dy="3.66667">D</text>
<path d="M1423 124h10" />
<text x="1435" y="124" fill="black" stroke-width="0" font-size="10" dy="3.66667">R</text>
<path d="M1383 194v-4" />
<path d="M1375 190h16" />
<path d="M1433 224h60v100h-60z" stroke="none" fill="#ffffcc" />
<path d="M1433 224h60v100h-60z" />
<path d="M1433 247l7 -3l-7 -3" />
<text x="1463" y="222" fill="black" stroke-width="0" text-anchor="middle" dy="-1.6">slv_reg[1]</text>
<text x="1463" y="326" fill="black" stroke-width="0" text-anchor="middle" dy="9.6">FDRE</text>
<path d="M1503 274h-10" />
<text x="1491" y="274" fill="black" stroke-width="0" font-size="10" text-anchor="end" dy="3.66667">Q</text>
<path d="M1423 244h10" />
<text x="1442" y="244" fill="black" stroke-width="0" font-size="10" dy="3.66667">C</text>
<path d="M1423 264h10" />
<text x="1435" y="264" fill="black" stroke-width="0" font-size="10" dy="3.66667">CE</text>
<path d="M1423 284h10" />
<text x="1435" y="284" fill="black" stroke-width="0" font-size="10" dy="3.66667">D</text>
<path d="M1423 304h10" />
<text x="1435" y="304" fill="black" stroke-width="0" font-size="10" dy="3.66667">R</text>
<path d="M1383 374v-4" />
<path d="M1375 370h16" />
<path d="M1433 404h60v100h-60z" stroke="none" fill="#ffffcc" />
<path d="M1433 404h60v100h-60z" />
<path d="M1433 427l7 -3l-7 -3" />
<text x="1463" y="402" fill="black" stroke-width="0" text-anchor="middle" dy="-1.6">slv_reg[2]</text>
<text x="1463" y="506" fill="black" stroke-width="0" text-anchor="middle" dy="9.6">FDRE</text>
<path d="M1503 454h-10" />
<text x="1491" y="454" fill="black" stroke-width="0" font-size="10" text-anchor="end" dy="3.66667">Q</text>
<path d="M1423 424h10" />
<text x="1442" y="424" fill="black" stroke-width="0" font-size="10" dy="3.66667">C</text>
<path d="M1423 444h10" />
<text x="1435" y="444" fill="black" stroke-width="0" font-size="10" dy="3.66667">CE</text>
<path d="M1423 464h10" />
<text x="1435" y="464" fill="black" stroke-width="0" font-size="10" dy="3.66667">D</text>
<path d="M1423 484h10" />
<text x="1435" y="484" fill="black" stroke-width="0" font-size="10" dy="3.66667">R</text>
<path d="M1383 574v-4" />
<path d="M1375 570h16" />
<path d="M1433 604h60v100h-60z" stroke="none" fill="#ffffcc" />
<path d="M1433 604h60v100h-60z" />
<path d="M1433 627l7 -3l-7 -3" />
<text x="1463" y="602" fill="black" stroke-width="0" text-anchor="middle" dy="-1.6">slv_reg[3]</text>
<text x="1463" y="706" fill="black" stroke-width="0" text-anchor="middle" dy="9.6">FDRE</text>
<path d="M1503 654h-10" />
<text x="1491" y="654" fill="black" stroke-width="0" font-size="10" text-anchor="end" dy="3.66667">Q</text>
<path d="M1423 624h10" />
<text x="1442" y="624" fill="black" stroke-width="0" font-size="10" dy="3.66667">C</text>
<path d="M1423 644h10" />
<text x="1435" y="644" fill="black" stroke-width="0" font-size="10" dy="3.66667">CE</text>
<path d="M1423 664h10" />
<text x="1435" y="664" fill="black" stroke-width="0" font-size="10" dy="3.66667">D</text>
<path d="M1423 684h10" />
<text x="1435" y="684" fill="black" stroke-width="0" font-size="10" dy="3.66667">R</text>
<path d="M1433 754h60v100h-60z" stroke="none" fill="#ffffcc" />
<path d="M1433 754h60v100h-60z" />
<path d="M1433 777l7 -3l-7 -3" />
<text x="1463" y="752" fill="black" stroke-width="0" text-anchor="middle" dy="-1.6">slv_reg[4]</text>
<text x="1463" y="856" fill="black" stroke-width="0" text-anchor="middle" dy="9.6">FDRE</text>
<path d="M1503 804h-10" />
<text x="1491" y="804" fill="black" stroke-width="0" font-size="10" text-anchor="end" dy="3.66667">Q</text>
<path d="M1423 774h10" />
<text x="1442" y="774" fill="black" stroke-width="0" font-size="10" dy="3.66667">C</text>
<path d="M1423 794h10" />
<text x="1435" y="794" fill="black" stroke-width="0" font-size="10" dy="3.66667">CE</text>
<path d="M1423 814h10" />
<text x="1435" y="814" fill="black" stroke-width="0" font-size="10" dy="3.66667">D</text>
<path d="M1423 834h10" />
<text x="1435" y="834" fill="black" stroke-width="0" font-size="10" dy="3.66667">R</text>
<path d="M1383 904v-4" />
<path d="M1375 900h16" />
<path d="M1433 934h60v100h-60z" stroke="none" fill="#ffffcc" />
<path d="M1433 934h60v100h-60z" />
<path d="M1433 957l7 -3l-7 -3" />
<text x="1463" y="932" fill="black" stroke-width="0" text-anchor="middle" dy="-1.6">slv_reg[5]</text>
<text x="1463" y="1036" fill="black" stroke-width="0" text-anchor="middle" dy="9.6">FDRE</text>
<path d="M1503 984h-10" />
<text x="1491" y="984" fill="black" stroke-width="0" font-size="10" text-anchor="end" dy="3.66667">Q</text>
<path d="M1423 954h10" />
<text x="1442" y="954" fill="black" stroke-width="0" font-size="10" dy="3.66667">C</text>
<path d="M1423 974h10" />
<text x="1435" y="974" fill="black" stroke-width="0" font-size="10" dy="3.66667">CE</text>
<path d="M1423 994h10" />
<text x="1435" y="994" fill="black" stroke-width="0" font-size="10" dy="3.66667">D</text>
<path d="M1423 1014h10" />
<text x="1435" y="1014" fill="black" stroke-width="0" font-size="10" dy="3.66667">R</text>
<path d="M1383 1084v-4" />
<path d="M1375 1080h16" />
<path d="M1433 1114h60v100h-60z" stroke="none" fill="#ffffcc" />
<path d="M1433 1114h60v100h-60z" />
<path d="M1433 1137l7 -3l-7 -3" />
<text x="1463" y="1112" fill="black" stroke-width="0" text-anchor="middle" dy="-1.6">slv_reg[6]</text>
<text x="1463" y="1216" fill="black" stroke-width="0" text-anchor="middle" dy="9.6">FDRE</text>
<path d="M1503 1164h-10" />
<text x="1491" y="1164" fill="black" stroke-width="0" font-size="10" text-anchor="end" dy="3.66667">Q</text>
<path d="M1423 1134h10" />
<text x="1442" y="1134" fill="black" stroke-width="0" font-size="10" dy="3.66667">C</text>
<path d="M1423 1154h10" />
<text x="1435" y="1154" fill="black" stroke-width="0" font-size="10" dy="3.66667">CE</text>
<path d="M1423 1174h10" />
<text x="1435" y="1174" fill="black" stroke-width="0" font-size="10" dy="3.66667">D</text>
<path d="M1423 1194h10" />
<text x="1435" y="1194" fill="black" stroke-width="0" font-size="10" dy="3.66667">R</text>
<path d="M1433 1274h60v60h-60z" stroke="none" fill="#ffffcc" />
<path d="M1433 1274h60v60h-60z" />
<text x="1463" y="1272" fill="black" stroke-width="0" text-anchor="middle" dy="-1.6">byte_out[7]_i_1</text>
<text x="1463" y="1336" fill="black" stroke-width="0" text-anchor="middle" dy="9.6">LUT3</text>
<path d="M1503 1304h-10" />
<text x="1491" y="1304" fill="black" stroke-width="0" font-size="10" text-anchor="end" dy="3.66667">O</text>
<path d="M1423 1284h10" />
<text x="1435" y="1284" fill="black" stroke-width="0" font-size="10" dy="3.66667">I0</text>
<path d="M1423 1304h10" />
<text x="1435" y="1304" fill="black" stroke-width="0" font-size="10" dy="3.66667">I1</text>
<path d="M1423 1324h10" />
<text x="1435" y="1324" fill="black" stroke-width="0" font-size="10" dy="3.66667">I2</text>
<path d="M1383 1424v-4" />
<path d="M1375 1420h16" />
<path d="M1433 1454h60v100h-60z" stroke="none" fill="#ffffcc" />
<path d="M1433 1454h60v100h-60z" />
<path d="M1433 1477l7 -3l-7 -3" />
<text x="1463" y="1452" fill="black" stroke-width="0" text-anchor="middle" dy="-1.6">slv_reg[7]</text>
<text x="1463" y="1556" fill="black" stroke-width="0" text-anchor="middle" dy="9.6">FDRE</text>
<path d="M1503 1504h-10" />
<text x="1491" y="1504" fill="black" stroke-width="0" font-size="10" text-anchor="end" dy="3.66667">Q</text>
<path d="M1423 1474h10" />
<text x="1442" y="1474" fill="black" stroke-width="0" font-size="10" dy="3.66667">C</text>
<path d="M1423 1494h10" />
<text x="1435" y="1494" fill="black" stroke-width="0" font-size="10" dy="3.66667">CE</text>
<path d="M1423 1514h10" />
<text x="1435" y="1514" fill="black" stroke-width="0" font-size="10" dy="3.66667">D</text>
<path d="M1423 1534h10" />
<text x="1435" y="1534" fill="black" stroke-width="0" font-size="10" dy="3.66667">R</text>
<path d="M1673 174h60v100h-60z" stroke="none" fill="#ffffcc" />
<path d="M1673 174h60v100h-60z" />
<path d="M1673 197l7 -3l-7 -3" />
<text x="1703" y="172" fill="black" stroke-width="0" text-anchor="middle" dy="-1.6">byte_out_reg[0]</text>
<text x="1703" y="276" fill="black" stroke-width="0" text-anchor="middle" dy="9.6">FDRE</text>
<path d="M1743 224h-10" />
<text x="1731" y="224" fill="black" stroke-width="0" font-size="10" text-anchor="end" dy="3.66667">Q</text>
<path d="M1663 194h10" />
<text x="1682" y="194" fill="black" stroke-width="0" font-size="10" dy="3.66667">C</text>
<path d="M1663 214h10" />
<text x="1675" y="214" fill="black" stroke-width="0" font-size="10" dy="3.66667">CE</text>
<path d="M1663 234h10" />
<text x="1675" y="234" fill="black" stroke-width="0" font-size="10" dy="3.66667">D</text>
<path d="M1663 254h10" />
<text x="1675" y="254" fill="black" stroke-width="0" font-size="10" dy="3.66667">R</text>
<path d="M1673 324h60v100h-60z" stroke="none" fill="#ffffcc" />
<path d="M1673 324h60v100h-60z" />
<path d="M1673 347l7 -3l-7 -3" />
<text x="1703" y="322" fill="black" stroke-width="0" text-anchor="middle" dy="-1.6">byte_out_reg[1]</text>
<text x="1703" y="426" fill="black" stroke-width="0" text-anchor="middle" dy="9.6">FDRE</text>
<path d="M1743 374h-10" />
<text x="1731" y="374" fill="black" stroke-width="0" font-size="10" text-anchor="end" dy="3.66667">Q</text>
<path d="M1663 344h10" />
<text x="1682" y="344" fill="black" stroke-width="0" font-size="10" dy="3.66667">C</text>
<path d="M1663 364h10" />
<text x="1675" y="364" fill="black" stroke-width="0" font-size="10" dy="3.66667">CE</text>
<path d="M1663 384h10" />
<text x="1675" y="384" fill="black" stroke-width="0" font-size="10" dy="3.66667">D</text>
<path d="M1663 404h10" />
<text x="1675" y="404" fill="black" stroke-width="0" font-size="10" dy="3.66667">R</text>
<path d="M1673 474h60v100h-60z" stroke="none" fill="#ffffcc" />
<path d="M1673 474h60v100h-60z" />
<path d="M1673 497l7 -3l-7 -3" />
<text x="1703" y="472" fill="black" stroke-width="0" text-anchor="middle" dy="-1.6">byte_out_reg[2]</text>
<text x="1703" y="576" fill="black" stroke-width="0" text-anchor="middle" dy="9.6">FDRE</text>
<path d="M1743 524h-10" />
<text x="1731" y="524" fill="black" stroke-width="0" font-size="10" text-anchor="end" dy="3.66667">Q</text>
<path d="M1663 494h10" />
<text x="1682" y="494" fill="black" stroke-width="0" font-size="10" dy="3.66667">C</text>
<path d="M1663 514h10" />
<text x="1675" y="514" fill="black" stroke-width="0" font-size="10" dy="3.66667">CE</text>
<path d="M1663 534h10" />
<text x="1675" y="534" fill="black" stroke-width="0" font-size="10" dy="3.66667">D</text>
<path d="M1663 554h10" />
<text x="1675" y="554" fill="black" stroke-width="0" font-size="10" dy="3.66667">R</text>
<path d="M1673 624h60v100h-60z" stroke="none" fill="#ffffcc" />
<path d="M1673 624h60v100h-60z" />
<path d="M1673 647l7 -3l-7 -3" />
<text x="1703" y="622" fill="black" stroke-width="0" text-anchor="middle" dy="-1.6">byte_out_reg[3]</text>
<text x="1703" y="726" fill="black" stroke-width="0" text-anchor="middle" dy="9.6">FDRE</text>
<path d="M1743 674h-10" />
<text x="1731" y="674" fill="black" stroke-width="0" font-size="10" text-anchor="end" dy="3.66667">Q</text>
<path d="M1663 644h10" />
<text x="1682" y="644" fill="black" stroke-width="0" font-size="10" dy="3.66667">C</text>
<path d="M1663 664h10" />
<text x="1675" y="664" fill="black" stroke-width="0" font-size="10" dy="3.66667">CE</text>
<path d="M1663 684h10" />
<text x="1675" y="684" fill="black" stroke-width="0" font-size="10" dy="3.66667">D</text>
<path d="M1663 704h10" />
<text x="1675" y="704" fill="black" stroke-width="0" font-size="10" dy="3.66667">R</text>
<path d="M1673 784h60v100h-60z" stroke="none" fill="#ffffcc" />
<path d="M1673 784h60v100h-60z" />
<path d="M1673 807l7 -3l-7 -3" />
<text x="1703" y="782" fill="black" stroke-width="0" text-anchor="middle" dy="-1.6">byte_out_reg[4]</text>
<text x="1703" y="886" fill="black" stroke-width="0" text-anchor="middle" dy="9.6">FDRE</text>
<path d="M1743 834h-10" />
<text x="1731" y="834" fill="black" stroke-width="0" font-size="10" text-anchor="end" dy="3.66667">Q</text>
<path d="M1663 804h10" />
<text x="1682" y="804" fill="black" stroke-width="0" font-size="10" dy="3.66667">C</text>
<path d="M1663 824h10" />
<text x="1675" y="824" fill="black" stroke-width="0" font-size="10" dy="3.66667">CE</text>
<path d="M1663 844h10" />
<text x="1675" y="844" fill="black" stroke-width="0" font-size="10" dy="3.66667">D</text>
<path d="M1663 864h10" />
<text x="1675" y="864" fill="black" stroke-width="0" font-size="10" dy="3.66667">R</text>
<path d="M1673 934h60v100h-60z" stroke="none" fill="#ffffcc" />
<path d="M1673 934h60v100h-60z" />
<path d="M1673 957l7 -3l-7 -3" />
<text x="1703" y="932" fill="black" stroke-width="0" text-anchor="middle" dy="-1.6">byte_out_reg[5]</text>
<text x="1703" y="1036" fill="black" stroke-width="0" text-anchor="middle" dy="9.6">FDRE</text>
<path d="M1743 984h-10" />
<text x="1731" y="984" fill="black" stroke-width="0" font-size="10" text-anchor="end" dy="3.66667">Q</text>
<path d="M1663 954h10" />
<text x="1682" y="954" fill="black" stroke-width="0" font-size="10" dy="3.66667">C</text>
<path d="M1663 974h10" />
<text x="1675" y="974" fill="black" stroke-width="0" font-size="10" dy="3.66667">CE</text>
<path d="M1663 994h10" />
<text x="1675" y="994" fill="black" stroke-width="0" font-size="10" dy="3.66667">D</text>
<path d="M1663 1014h10" />
<text x="1675" y="1014" fill="black" stroke-width="0" font-size="10" dy="3.66667">R</text>
<path d="M1673 1104h60v100h-60z" stroke="none" fill="#ffffcc" />
<path d="M1673 1104h60v100h-60z" />
<path d="M1673 1127l7 -3l-7 -3" />
<text x="1703" y="1102" fill="black" stroke-width="0" text-anchor="middle" dy="-1.6">byte_out_reg[6]</text>
<text x="1703" y="1206" fill="black" stroke-width="0" text-anchor="middle" dy="9.6">FDRE</text>
<path d="M1743 1154h-10" />
<text x="1731" y="1154" fill="black" stroke-width="0" font-size="10" text-anchor="end" dy="3.66667">Q</text>
<path d="M1663 1124h10" />
<text x="1682" y="1124" fill="black" stroke-width="0" font-size="10" dy="3.66667">C</text>
<path d="M1663 1144h10" />
<text x="1675" y="1144" fill="black" stroke-width="0" font-size="10" dy="3.66667">CE</text>
<path d="M1663 1164h10" />
<text x="1675" y="1164" fill="black" stroke-width="0" font-size="10" dy="3.66667">D</text>
<path d="M1663 1184h10" />
<text x="1675" y="1184" fill="black" stroke-width="0" font-size="10" dy="3.66667">R</text>
<path d="M1673 1254h60v100h-60z" stroke="none" fill="#ffffcc" />
<path d="M1673 1254h60v100h-60z" />
<path d="M1673 1277l7 -3l-7 -3" />
<text x="1703" y="1252" fill="black" stroke-width="0" text-anchor="middle" dy="-1.6">byte_out_reg[7]</text>
<text x="1703" y="1356" fill="black" stroke-width="0" text-anchor="middle" dy="9.6">FDRE</text>
<path d="M1743 1304h-10" />
<text x="1731" y="1304" fill="black" stroke-width="0" font-size="10" text-anchor="end" dy="3.66667">Q</text>
<path d="M1663 1274h10" />
<text x="1682" y="1274" fill="black" stroke-width="0" font-size="10" dy="3.66667">C</text>
<path d="M1663 1294h10" />
<text x="1675" y="1294" fill="black" stroke-width="0" font-size="10" dy="3.66667">CE</text>
<path d="M1663 1314h10" />
<text x="1675" y="1314" fill="black" stroke-width="0" font-size="10" dy="3.66667">D</text>
<path d="M1663 1334h10" />
<text x="1675" y="1334" fill="black" stroke-width="0" font-size="10" dy="3.66667">R</text>
</g>
<g stroke="black" stroke-width="3">
<path d="M1803 224v-7h14l7 7l-7 7h-14z" />
<text x="1828" y="224" fill="black" stroke-width="0" dy="4.4">byte_out[7:0]</text>
</g>
<g>
<path d="M1383 1424v70h40" />
<path d="M1383 1084v70h40" />
<path d="M1383 904v70h40" />
<path d="M1383 574v220h40" />
<path d="M1383 644h40" />
<path d="M1381 642h5v5h-5z" stroke="none" fill="#19b400" />
<path d="M1383 374v70h40" />
<path d="M1383 194v70h40" />
<path d="M1383 14v70h40" />
<path d="M923 1184v70h20" />
<path d="M583 1114v70h20" />
<path d="M263 1094v70h20" />
</g>
<g stroke="green" stroke-width="3">
<path d="M1783 221v1086" />
<path d="M1783 224h20" />
</g>
<g>
<path d="M1743 224h40" />
<path d="M1743 374h40" />
<path d="M1743 524h40" />
<path d="M1743 674h40" />
<path d="M1743 834h40" />
<path d="M1743 984h40" />
<path d="M1743 1154h40" />
<path d="M1743 1304h40" />
</g>
<g stroke="black" stroke-width="3">
<path d="M1785 219v10l-12 -5" stroke="none" fill="black" />
<path d="M1785 369v10l-12 -5" stroke="none" fill="black" />
<path d="M1785 519v10l-12 -5" stroke="none" fill="black" />
<path d="M1785 669v10l-12 -5" stroke="none" fill="black" />
<path d="M1785 829v10l-12 -5" stroke="none" fill="black" />
<path d="M1785 979v10l-12 -5" stroke="none" fill="black" />
<path d="M1785 1149v10l-12 -5" stroke="none" fill="black" />
<path d="M1785 1299v10l-12 -5" stroke="none" fill="black" />
</g>
<g>
<path d="M1503 1304h80v-1090h80" />
<path d="M1583 1294h80" />
<path d="M1583 1144h80" />
<path d="M1583 974h80" />
<path d="M1583 824h80" />
<path d="M1583 664h80" />
<path d="M1583 514h80" />
<path d="M1583 364h80" />
<path d="M1581 1292h5v5h-5z" stroke="none" fill="#19b400" />
<path d="M1581 1142h5v5h-5z" stroke="none" fill="#19b400" />
<path d="M1581 972h5v5h-5z" stroke="none" fill="#19b400" />
<path d="M1581 822h5v5h-5z" stroke="none" fill="#19b400" />
<path d="M1581 662h5v5h-5z" stroke="none" fill="#19b400" />
<path d="M1581 512h5v5h-5z" stroke="none" fill="#19b400" />
<path d="M1581 362h5v5h-5z" stroke="none" fill="#19b400" />
<path d="M103 1074h140v70h40" />
<path d="M243 1074h320v200h320" />
<path d="M881 1272h5v5h-5z" stroke="none" fill="#19b400" />
<path d="M241 1072h5v5h-5z" stroke="none" fill="#19b400" />
<path d="M563 1164h40" />
<path d="M561 1162h5v5h-5z" stroke="none" fill="#19b400" />
<path d="M943 1234h-60v230h460" />
<path d="M1341 242h5v5h-5z" stroke="none" fill="#19b400" />
<path d="M1341 422h5v5h-5z" stroke="none" fill="#19b400" />
<path d="M1341 622h5v5h-5z" stroke="none" fill="#19b400" />
<path d="M1341 772h5v5h-5z" stroke="none" fill="#19b400" />
<path d="M1341 952h5v5h-5z" stroke="none" fill="#19b400" />
<path d="M1341 1132h5v5h-5z" stroke="none" fill="#19b400" />
<path d="M1341 1362h5v5h-5z" stroke="none" fill="#19b400" />
<path d="M1341 1462h5v5h-5z" stroke="none" fill="#19b400" />
<path d="M1423 64h-80v1410h80" />
<path d="M1343 244h80" />
<path d="M1343 424h80" />
<path d="M1343 624h80" />
<path d="M1343 774h80" />
<path d="M1343 954h80" />
<path d="M1343 1134h80" />
<path d="M1343 1364h220v-1170h100" />
<path d="M1563 1274h100" />
<path d="M1563 1124h100" />
<path d="M1563 954h100" />
<path d="M1563 804h100" />
<path d="M1563 644h100" />
<path d="M1563 494h100" />
<path d="M1563 344h100" />
<path d="M1561 1272h5v5h-5z" stroke="none" fill="#19b400" />
<path d="M1561 1122h5v5h-5z" stroke="none" fill="#19b400" />
<path d="M1561 952h5v5h-5z" stroke="none" fill="#19b400" />
<path d="M1561 802h5v5h-5z" stroke="none" fill="#19b400" />
<path d="M1561 642h5v5h-5z" stroke="none" fill="#19b400" />
<path d="M1561 492h5v5h-5z" stroke="none" fill="#19b400" />
<path d="M1561 342h5v5h-5z" stroke="none" fill="#19b400" />
<path d="M143 1184h-20v90h260" />
<path d="M363 1174h20" />
<path d="M381 1272h5v5h-5z" stroke="none" fill="#19b400" />
<path d="M381 1172h5v5h-5z" stroke="none" fill="#19b400" />
<path d="M423 1324h-40v-230h320v80h180v-10h220" />
<path d="M1103 1164h40" />
<path d="M1103 1264h160v40h160" />
<path d="M703 1094h60" />
<path d="M701 1092h5v5h-5z" stroke="none" fill="#19b400" />
<path d="M1143 104h-40v1260h40" />
<path d="M1103 274h40" />
<path d="M1103 474h40" />
<path d="M1103 634h40" />
<path d="M1103 804h40" />
<path d="M1103 984h40" />
<path d="M1101 272h5v5h-5z" stroke="none" fill="#19b400" />
<path d="M1101 472h5v5h-5z" stroke="none" fill="#19b400" />
<path d="M1101 632h5v5h-5z" stroke="none" fill="#19b400" />
<path d="M1101 802h5v5h-5z" stroke="none" fill="#19b400" />
<path d="M1101 982h5v5h-5z" stroke="none" fill="#19b400" />
<path d="M1101 1162h5v5h-5z" stroke="none" fill="#19b400" />
<path d="M1101 1262h5v5h-5z" stroke="none" fill="#19b400" />
<path d="M423 1344h-20v-60h140v30h180" />
<path d="M721 1192h5v5h-5z" stroke="none" fill="#19b400" />
<path d="M721 1312h5v5h-5z" stroke="none" fill="#19b400" />
<path d="M763 1114h-40v250h360" />
<path d="M1081 292h5v5h-5z" stroke="none" fill="#19b400" />
<path d="M1081 452h5v5h-5z" stroke="none" fill="#19b400" />
<path d="M1081 652h5v5h-5z" stroke="none" fill="#19b400" />
<path d="M1081 822h5v5h-5z" stroke="none" fill="#19b400" />
<path d="M1081 1002h5v5h-5z" stroke="none" fill="#19b400" />
<path d="M1081 1142h5v5h-5z" stroke="none" fill="#19b400" />
<path d="M1081 1282h5v5h-5z" stroke="none" fill="#19b400" />
<path d="M1081 1362h5v5h-5z" stroke="none" fill="#19b400" />
<path d="M683 1194h40" />
<path d="M1143 124h-60v1260h60" />
<path d="M1083 294h60" />
<path d="M1083 454h60" />
<path d="M1083 654h60" />
<path d="M1083 824h60" />
<path d="M1083 1004h60" />
<path d="M1083 1144h60" />
<path d="M1083 1284h160v40h180" />
<path d="M763 1134h-20v210h320" />
<path d="M1061 252h5v5h-5z" stroke="none" fill="#19b400" />
<path d="M1061 432h5v5h-5z" stroke="none" fill="#19b400" />
<path d="M1061 672h5v5h-5z" stroke="none" fill="#19b400" />
<path d="M1061 782h5v5h-5z" stroke="none" fill="#19b400" />
<path d="M1061 962h5v5h-5z" stroke="none" fill="#19b400" />
<path d="M1061 1122h5v5h-5z" stroke="none" fill="#19b400" />
<path d="M1061 1222h5v5h-5z" stroke="none" fill="#19b400" />
<path d="M1061 1262h5v5h-5z" stroke="none" fill="#19b400" />
<path d="M1061 1342h5v5h-5z" stroke="none" fill="#19b400" />
<path d="M1143 84h-80v1260h80" />
<path d="M1063 254h80" />
<path d="M1063 434h80" />
<path d="M1063 674h80" />
<path d="M1063 784h80" />
<path d="M1063 964h80" />
<path d="M1063 1124h80" />
<path d="M1063 1224h220v60h140" />
<path d="M1023 1264h40" />
<path d="M223 1184h60" />
<path d="M503 1324h20v-120h80" />
<path d="M843 1114h60v160h40" />
<path d="M103 1224h140" />
<path d="M241 1222h5v5h-5z" stroke="none" fill="#19b400" />
<path d="M283 1204h-40v50h340" />
<path d="M581 1252h5v5h-5z" stroke="none" fill="#19b400" />
<path d="M603 1224h-20v70h280v190h440" />
<path d="M1301 302h5v5h-5z" stroke="none" fill="#19b400" />
<path d="M1301 482h5v5h-5z" stroke="none" fill="#19b400" />
<path d="M1301 682h5v5h-5z" stroke="none" fill="#19b400" />
<path d="M1301 832h5v5h-5z" stroke="none" fill="#19b400" />
<path d="M1301 1012h5v5h-5z" stroke="none" fill="#19b400" />
<path d="M1301 1192h5v5h-5z" stroke="none" fill="#19b400" />
<path d="M1301 1382h5v5h-5z" stroke="none" fill="#19b400" />
<path d="M1301 1482h5v5h-5z" stroke="none" fill="#19b400" />
<path d="M863 1294h80" />
<path d="M861 1292h5v5h-5z" stroke="none" fill="#19b400" />
<path d="M1423 124h-120v1410h120" />
<path d="M1303 304h120" />
<path d="M1303 484h120" />
<path d="M1303 684h120" />
<path d="M1303 834h120" />
<path d="M1303 1014h120" />
<path d="M1303 1194h120" />
<path d="M1303 1384h300v-1130h60" />
<path d="M1603 1334h60" />
<path d="M1603 1184h60" />
<path d="M1603 1014h60" />
<path d="M1603 864h60" />
<path d="M1603 704h60" />
<path d="M1603 554h60" />
<path d="M1603 404h60" />
<path d="M1601 1332h5v5h-5z" stroke="none" fill="#19b400" />
<path d="M1601 1182h5v5h-5z" stroke="none" fill="#19b400" />
<path d="M1601 1012h5v5h-5z" stroke="none" fill="#19b400" />
<path d="M1601 862h5v5h-5z" stroke="none" fill="#19b400" />
<path d="M1601 702h5v5h-5z" stroke="none" fill="#19b400" />
<path d="M1601 552h5v5h-5z" stroke="none" fill="#19b400" />
<path d="M1601 402h5v5h-5z" stroke="none" fill="#19b400" />
<path d="M103 1384h940v-1320h100" />
<path d="M1043 1324h100" />
<path d="M1043 1104h100" />
<path d="M1043 944h100" />
<path d="M1043 764h100" />
<path d="M1043 614h100" />
<path d="M1043 414h100" />
<path d="M1043 234h100" />
<path d="M1041 1322h5v5h-5z" stroke="none" fill="#19b400" />
<path d="M1041 1102h5v5h-5z" stroke="none" fill="#19b400" />
<path d="M1041 942h5v5h-5z" stroke="none" fill="#19b400" />
<path d="M1041 762h5v5h-5z" stroke="none" fill="#19b400" />
<path d="M1041 612h5v5h-5z" stroke="none" fill="#19b400" />
<path d="M1041 412h5v5h-5z" stroke="none" fill="#19b400" />
<path d="M1041 232h5v5h-5z" stroke="none" fill="#19b400" />
<path d="M1143 144h-20v40h120v-10h360" />
<path d="M1601 172h5v5h-5z" stroke="none" fill="#19b400" />
<path d="M1503 94h100v140h60" />
<path d="M1223 104h200" />
<path d="M1143 314h-20v40h420" />
<path d="M1541 352h5v5h-5z" stroke="none" fill="#19b400" />
<path d="M1503 274h40v110h120" />
<path d="M1223 274h140v10h60" />
<path d="M1143 494h-20v40h420" />
<path d="M1541 532h5v5h-5z" stroke="none" fill="#19b400" />
<path d="M1503 454h40v80h120" />
<path d="M1223 454h140v10h60" />
<path d="M1143 694h-20v-140h420v130h120" />
<path d="M1503 654h40" />
<path d="M1541 652h5v5h-5z" stroke="none" fill="#19b400" />
<path d="M1223 654h140v10h60" />
<path d="M1143 844h-20v40h420v-80h-40" />
<path d="M1543 844h120" />
<path d="M1541 842h5v5h-5z" stroke="none" fill="#19b400" />
<path d="M1223 804h140v10h60" />
<path d="M1143 1024h-20v40h420v-80h-40" />
<path d="M1543 994h120" />
<path d="M1541 992h5v5h-5z" stroke="none" fill="#19b400" />
<path d="M1223 984h100v10h100" />
<path d="M1143 1184h-20v60h420v-80h-40" />
<path d="M1543 1164h120" />
<path d="M1541 1162h5v5h-5z" stroke="none" fill="#19b400" />
<path d="M1223 1144h20v30h180" />
<path d="M1143 1404h-20v40h240v-40h260" />
<path d="M1621 1402h5v5h-5z" stroke="none" fill="#19b400" />
<path d="M1503 1504h120v-190h40" />
<path d="M1223 1364h20v150h180" />
</g>
</g>
</svg>
