<svg xmlns="http://www.w3.org/2000/svg" xmlns:xlink="http://www.w3.org/1999/xlink" xmlns:s="https://github.com/nturley/netlistsvg" width="1003" height="408.5"><rect width="100%" height="100%" fill="white"/>
  <style>svg {
    stroke:#000;
    fill:none;
  }
  text {
    fill:#000;
    stroke:none;
    font-size:10px;
    font-weight: bold;
    font-family: "Courier New", monospace;
  }
  .nodelabel {
    text-anchor: middle;
  }
  .inputPortLabel {
    text-anchor: end;
  }
  .splitjoinBody {
    fill:#000;
  }</style>
  <g s:type="add" transform="translate(806.3333333333334,232.5)" s:width="25" s:height="25" id="cell_$add$sv2v.v:21$15">
    <s:alias val="$add"/>
    <circle r="12.5" cx="12.5" cy="12.5" class="cell_$add$sv2v.v:21$15"/>
    <line x1="7.5" x2="17.5" y1="12.5" y2="12.5" class="cell_$add$sv2v.v:21$15"/>
    <line x1="12.5" x2="12.5" y1="7.5" y2="17.5" class="cell_$add$sv2v.v:21$15"/>
    <g s:x="3" s:y="5" s:pid="A"/>
    <g s:x="3" s:y="20" s:pid="B"/>
    <g s:x="25" s:y="12.5" s:pid="Y"/>
  </g>
  <g s:type="and" transform="translate(433.6666666666667,34)" s:width="30" s:height="25" id="cell_$and$sv2v.v:0$11">
    <s:alias val="$and"/>
    <s:alias val="$logic_and"/>
    <s:alias val="$_AND_"/>
    <path d="M0,0 L0,25 L15,25 A15 12.5 0 0 0 15,0 Z" class="cell_$and$sv2v.v:0$11"/>
    <g s:x="0" s:y="5" s:pid="A"/>
    <g s:x="0" s:y="20" s:pid="B"/>
    <g s:x="30" s:y="12.5" s:pid="Y"/>
  </g>
  <g s:type="not" transform="translate(683,343.5)" s:width="30" s:height="20" id="cell_$eq$sv2v.v:22$16">
    <s:alias val="$_NOT_"/>
    <s:alias val="$not"/>
    <s:alias val="$logic_not"/>
    <path d="M0,0 L0,20 L20,10 Z" class="cell_$eq$sv2v.v:22$16"/>
    <circle cx="23" cy="10" r="3" class="cell_$eq$sv2v.v:22$16"/>
    <g s:x="0" s:y="10" s:pid="A"/>
    <g s:x="25" s:y="10" s:pid="Y"/>
  </g>
  <g s:type="generic" transform="translate(39,362.5)" s:width="30" s:height="40" id="cell_$neg$sv2v.v:0$12">
    <text x="15" y="-4" class="nodelabel cell_$neg$sv2v.v:0$12" s:attribute="ref">$neg</text>
    <rect width="30" height="20" s:generic="body" class="cell_$neg$sv2v.v:0$12"/>
    <g transform="translate(0,10)" s:x="0" s:y="10" s:pid="in0" id="port_$neg$sv2v.v:0$12~A">
      <text x="-3" y="-4" class="inputPortLabel cell_$neg$sv2v.v:0$12">A</text>
    </g>
    <g transform="translate(30,10)" s:x="30" s:y="10" s:pid="out0" id="port_$neg$sv2v.v:0$12~Y">
      <text x="5" y="-4" style="fill:#000; stroke:none" class="cell_$neg$sv2v.v:0$12">Y</text>
    </g>
  </g>
  <g s:type="not" transform="translate(326,44)" s:width="30" s:height="20" id="cell_$not$sv2v.v:0$10">
    <s:alias val="$_NOT_"/>
    <s:alias val="$not"/>
    <s:alias val="$logic_not"/>
    <path d="M0,0 L0,20 L20,10 Z" class="cell_$not$sv2v.v:0$10"/>
    <circle cx="23" cy="10" r="3" class="cell_$not$sv2v.v:0$10"/>
    <g s:x="0" s:y="10" s:pid="A"/>
    <g s:x="25" s:y="10" s:pid="Y"/>
  </g>
  <g s:type="or" transform="translate(553,99)" s:width="30" s:height="25" id="cell_$or$sv2v.v:0$14">
    <s:alias val="$or"/>
    <s:alias val="$logic_or"/>
    <s:alias val="$_OR_"/>
    <path d="M0,25 L0,25 L15,25 A15 12.5 0 0 0 15,0 L0,0" class="cell_$or$sv2v.v:0$14"/>
    <path d="M0,0 A30 25 0 0 1 0,25" class="cell_$or$sv2v.v:0$14"/>
    <g s:x="3" s:y="5" s:pid="A"/>
    <g s:x="3" s:y="20" s:pid="B"/>
    <g s:x="30" s:y="12.5" s:pid="Y"/>
  </g>
  <g s:type="dff" transform="translate(868,151.5)" s:width="30" s:height="40" id="cell_$procdff$31">
    <s:alias val="$dff"/>
    <s:alias val="$_DFF_"/>
    <s:alias val="$_DFF_P_"/>
    <rect width="30" height="40" x="0" y="0" class="cell_$procdff$31"/>
    <path d="M0,35 L5,30 L0,25" class="cell_$procdff$31"/>
    <g s:x="30" s:y="10" s:pid="Q"/>
    <g s:x="0" s:y="30" s:pid="CLK"/>
    <g s:x="0" s:y="30" s:pid="C"/>
    <g s:x="0" s:y="10" s:pid="D"/>
  </g>
  <g s:type="dff" transform="translate(683,111.5)" s:width="30" s:height="40" id="cell_$procdff$32">
    <s:alias val="$dff"/>
    <s:alias val="$_DFF_"/>
    <s:alias val="$_DFF_P_"/>
    <rect width="30" height="40" x="0" y="0" class="cell_$procdff$32"/>
    <path d="M0,35 L5,30 L0,25" class="cell_$procdff$32"/>
    <g s:x="30" s:y="10" s:pid="Q"/>
    <g s:x="0" s:y="30" s:pid="CLK"/>
    <g s:x="0" s:y="30" s:pid="C"/>
    <g s:x="0" s:y="10" s:pid="D"/>
  </g>
  <g s:type="dff" transform="translate(933,302.5)" s:width="30" s:height="40" id="cell_$procdff$33">
    <s:alias val="$dff"/>
    <s:alias val="$_DFF_"/>
    <s:alias val="$_DFF_P_"/>
    <rect width="30" height="40" x="0" y="0" class="cell_$procdff$33"/>
    <path d="M0,35 L5,30 L0,25" class="cell_$procdff$33"/>
    <g s:x="30" s:y="10" s:pid="Q"/>
    <g s:x="0" s:y="30" s:pid="CLK"/>
    <g s:x="0" s:y="30" s:pid="C"/>
    <g s:x="0" s:y="10" s:pid="D"/>
  </g>
  <g s:type="mux" transform="translate(871.3333333333334,282.5)" s:width="20" s:height="40" id="cell_$procmux$18">
    <s:alias val="$pmux"/>
    <s:alias val="$mux"/>
    <s:alias val="$_MUX_"/>
    <path d="M0,0 L20,10 L20,30 L0,40 Z" class="cell_$procmux$18"/>
    <g s:x="0" s:y="10" s:pid="A"/>
    <g s:x="0" s:y="30" s:pid="B"/>
    <g s:x="10" s:y="35" s:pid="S"/>
    <g s:x="20" s:y="20" s:pid="Y"/>
  </g>
  <g s:type="mux" transform="translate(621.3333333333334,101.5)" s:width="20" s:height="40" id="cell_$procmux$21">
    <s:alias val="$pmux"/>
    <s:alias val="$mux"/>
    <s:alias val="$_MUX_"/>
    <path d="M0,0 L20,10 L20,30 L0,40 Z" class="cell_$procmux$21"/>
    <g s:x="0" s:y="10" s:pid="A"/>
    <g s:x="0" s:y="30" s:pid="B"/>
    <g s:x="10" s:y="35" s:pid="S"/>
    <g s:x="20" s:y="20" s:pid="Y"/>
  </g>
  <g s:type="mux" transform="translate(748,91.5)" s:width="20" s:height="40" id="cell_$procmux$26">
    <s:alias val="$pmux"/>
    <s:alias val="$mux"/>
    <s:alias val="$_MUX_"/>
    <path d="M0,0 L20,10 L20,30 L0,40 Z" class="cell_$procmux$26"/>
    <g s:x="0" s:y="10" s:pid="A"/>
    <g s:x="0" s:y="30" s:pid="B"/>
    <g s:x="10" s:y="35" s:pid="S"/>
    <g s:x="20" s:y="20" s:pid="Y"/>
  </g>
  <g s:type="mux" transform="translate(806.3333333333334,101.5)" s:width="20" s:height="40" id="cell_$procmux$29">
    <s:alias val="$pmux"/>
    <s:alias val="$mux"/>
    <s:alias val="$_MUX_"/>
    <path d="M0,0 L20,10 L20,30 L0,40 Z" class="cell_$procmux$29"/>
    <g s:x="0" s:y="10" s:pid="A"/>
    <g s:x="0" s:y="30" s:pid="B"/>
    <g s:x="10" s:y="35" s:pid="S"/>
    <g s:x="20" s:y="20" s:pid="Y"/>
  </g>
  <g s:type="generic" transform="translate(410,108.5)" s:width="30" s:height="40" id="cell_$shift$sv2v.v:0$13">
    <text x="15" y="-4" class="nodelabel cell_$shift$sv2v.v:0$13" s:attribute="ref">$shift</text>
    <rect width="30" height="40" s:generic="body" class="cell_$shift$sv2v.v:0$13"/>
    <g transform="translate(0,10)" s:x="0" s:y="10" s:pid="in0" id="port_$shift$sv2v.v:0$13~A">
      <text x="-3" y="-4" class="inputPortLabel cell_$shift$sv2v.v:0$13">A</text>
    </g>
    <g transform="translate(0,30)" s:x="0" s:y="10" s:pid="in0" id="port_$shift$sv2v.v:0$13~B">
      <text x="-3" y="-4" class="inputPortLabel cell_$shift$sv2v.v:0$13">B</text>
    </g>
    <g transform="translate(30,10)" s:x="30" s:y="10" s:pid="out0" id="port_$shift$sv2v.v:0$13~Y">
      <text x="5" y="-4" style="fill:#000; stroke:none" class="cell_$shift$sv2v.v:0$13">Y</text>
    </g>
  </g>
  <g s:type="generic" transform="translate(177,43.5)" s:width="30" s:height="40" id="cell_$shift$sv2v.v:0$9">
    <text x="15" y="-4" class="nodelabel cell_$shift$sv2v.v:0$9" s:attribute="ref">$shift</text>
    <rect width="30" height="40" s:generic="body" class="cell_$shift$sv2v.v:0$9"/>
    <g transform="translate(0,10)" s:x="0" s:y="10" s:pid="in0" id="port_$shift$sv2v.v:0$9~A">
      <text x="-3" y="-4" class="inputPortLabel cell_$shift$sv2v.v:0$9">A</text>
    </g>
    <g transform="translate(0,30)" s:x="0" s:y="10" s:pid="in0" id="port_$shift$sv2v.v:0$9~B">
      <text x="-3" y="-4" class="inputPortLabel cell_$shift$sv2v.v:0$9">B</text>
    </g>
    <g transform="translate(30,10)" s:x="30" s:y="10" s:pid="out0" id="port_$shift$sv2v.v:0$9~Y">
      <text x="5" y="-4" style="fill:#000; stroke:none" class="cell_$shift$sv2v.v:0$9">Y</text>
    </g>
  </g>
  <g s:type="inputExt" transform="translate(618,171.5)" s:width="30" s:height="20" id="cell_clk">
    <text x="15" y="-4" class="nodelabel cell_clk" s:attribute="ref">clk</text>
    <s:alias val="$_inputExt_"/>
    <path d="M0,0 L0,20 L15,20 L30,10 L15,0 Z" class="cell_clk"/>
    <g s:x="28" s:y="10" s:pid="Y"/>
  </g>
  <g s:type="inputExt" transform="translate(553,202.5)" s:width="30" s:height="20" id="cell_rst">
    <text x="15" y="-4" class="nodelabel cell_rst" s:attribute="ref">rst</text>
    <s:alias val="$_inputExt_"/>
    <path d="M0,0 L0,20 L15,20 L30,10 L15,0 Z" class="cell_rst"/>
    <g s:x="28" s:y="10" s:pid="Y"/>
  </g>
  <g s:type="inputExt" transform="translate(314,109)" s:width="30" s:height="20" id="cell_serial_in">
    <text x="15" y="-4" class="nodelabel cell_serial_in" s:attribute="ref">serial_in</text>
    <s:alias val="$_inputExt_"/>
    <path d="M0,0 L0,20 L15,20 L30,10 L15,0 Z" class="cell_serial_in"/>
    <g s:x="28" s:y="10" s:pid="Y"/>
  </g>
  <g s:type="outputExt" transform="translate(933,151.5)" s:width="30" s:height="20" id="cell_byte_out">
    <text x="15" y="-4" class="nodelabel cell_byte_out" s:attribute="ref">byte_out</text>
    <s:alias val="$_outputExt_"/>
    <path d="M30,0 L30,20 L15,20 L0,10 L15,0 Z" class="cell_byte_out"/>
    <g s:x="0" s:y="10" s:pid="A"/>
  </g>
  <g s:type="constant" transform="translate(39,242.5)" s:width="30" s:height="20" id="cell_1">
    <text x="15" y="-4" class="nodelabel cell_1" s:attribute="ref">1</text>
    <s:alias val="$_constant_"/>
    <rect width="30" height="20" class="cell_1"/>
    <g s:x="30" s:y="10" s:pid="Y"/>
  </g>
  <g s:type="constant" transform="translate(803,302.5)" s:width="30" s:height="20" id="cell_000">
    <text x="15" y="-4" class="nodelabel cell_000" s:attribute="ref">000</text>
    <s:alias val="$_constant_"/>
    <rect width="30" height="20" class="cell_000"/>
    <g s:x="30" s:y="10" s:pid="Y"/>
  </g>
  <g s:type="constant" transform="translate(553,44)" s:width="30" s:height="20" id="cell_00000000">
    <text x="15" y="-4" class="nodelabel cell_00000000" s:attribute="ref">0x0</text>
    <s:alias val="$_constant_"/>
    <rect width="30" height="20" class="cell_00000000"/>
    <g s:x="30" s:y="10" s:pid="Y"/>
  </g>
  <line x1="963" x2="991" y1="312.5" y2="312.5" class="net_13,14,15"/>
  <line x1="991" x2="991" y1="312.5" y2="222.5" class="net_13,14,15"/>
  <line x1="991" x2="778" y1="222.5" y2="222.5" class="net_13,14,15"/>
  <line x1="778" x2="778" y1="222.5" y2="237.5" class="net_13,14,15"/>
  <circle cx="991" cy="312.5" r="2" style="fill:#000" class="net_13,14,15"/>
  <line x1="778" x2="809.3333333333334" y1="237.5" y2="237.5" class="net_13,14,15"/>
  <line x1="963" x2="991" y1="312.5" y2="312.5" class="net_13,14,15"/>
  <line x1="991" x2="991" y1="312.5" y2="395.5" class="net_13,14,15"/>
  <line x1="991" x2="908" y1="395.5" y2="395.5" class="net_13,14,15"/>
  <line x1="908" x2="908" y1="395.5" y2="373.5" class="net_13,14,15"/>
  <line x1="908" x2="658" y1="373.5" y2="373.5" class="net_13,14,15"/>
  <line x1="658" x2="658" y1="373.5" y2="353.5" class="net_13,14,15"/>
  <circle cx="908" cy="395.5" r="2" style="fill:#000" class="net_13,14,15"/>
  <line x1="658" x2="683" y1="353.5" y2="353.5" class="net_13,14,15"/>
  <line x1="963" x2="991" y1="312.5" y2="312.5" class="net_13,14,15"/>
  <line x1="991" x2="991" y1="312.5" y2="395.5" class="net_13,14,15"/>
  <line x1="991" x2="12" y1="395.5" y2="395.5" class="net_13,14,15"/>
  <line x1="12" x2="12" y1="395.5" y2="373" class="net_13,14,15"/>
  <line x1="12" x2="39" y1="373" y2="373" class="net_13,14,15"/>
  <line x1="69" x2="809.3333333333334" y1="252.5" y2="252.5" class="net_99"/>
  <line x1="69" x2="145" y1="252.5" y2="252.5" class="net_99"/>
  <line x1="145" x2="145" y1="252.5" y2="54" class="net_99"/>
  <circle cx="145" cy="252.5" r="2" style="fill:#000" class="net_99"/>
  <line x1="145" x2="177" y1="54" y2="54" class="net_99"/>
  <line x1="713" x2="723" y1="121.5" y2="121.5" class="net_19,20,21,22,23,24,25,26"/>
  <line x1="723" x2="723" y1="121.5" y2="23" class="net_19,20,21,22,23,24,25,26"/>
  <line x1="723" x2="378" y1="23" y2="23" class="net_19,20,21,22,23,24,25,26"/>
  <line x1="378" x2="378" y1="23" y2="39" class="net_19,20,21,22,23,24,25,26"/>
  <circle cx="723" cy="121.5" r="2" style="fill:#000" class="net_19,20,21,22,23,24,25,26"/>
  <line x1="378" x2="433.6666666666667" y1="39" y2="39" class="net_19,20,21,22,23,24,25,26"/>
  <line x1="713" x2="748" y1="121.5" y2="121.5" class="net_19,20,21,22,23,24,25,26"/>
  <line x1="351" x2="433.6666666666667" y1="54" y2="54" class="net_27,28,29,30,31,32,33,34"/>
  <line x1="208" x2="326" y1="54" y2="54" class="net_48,49,50,51,52,53,54,55"/>
  <line x1="463.6666666666667" x2="528" y1="46.5" y2="46.5" class="net_35,36,37,38,39,40,41,42"/>
  <line x1="528" x2="528" y1="46.5" y2="104" class="net_35,36,37,38,39,40,41,42"/>
  <line x1="528" x2="556" y1="104" y2="104" class="net_35,36,37,38,39,40,41,42"/>
  <line x1="441" x2="556" y1="119" y2="119" class="net_56,57,58,59,60,61,62,63"/>
  <line x1="646" x2="868" y1="181.5" y2="181.5" class="net_2"/>
  <line x1="646" x2="658" y1="181.5" y2="181.5" class="net_2"/>
  <line x1="658" x2="658" y1="181.5" y2="141.5" class="net_2"/>
  <circle cx="658" cy="181.5" r="2" style="fill:#000" class="net_2"/>
  <line x1="658" x2="683" y1="141.5" y2="141.5" class="net_2"/>
  <line x1="646" x2="658" y1="181.5" y2="181.5" class="net_2"/>
  <line x1="658" x2="658" y1="181.5" y2="332.5" class="net_2"/>
  <line x1="658" x2="933" y1="332.5" y2="332.5" class="net_2"/>
  <line x1="826.3333333333334" x2="843" y1="121.5" y2="121.5" class="net_72,73,74,75,76,77,78,79"/>
  <line x1="843" x2="843" y1="121.5" y2="161.5" class="net_72,73,74,75,76,77,78,79"/>
  <line x1="843" x2="868" y1="161.5" y2="161.5" class="net_72,73,74,75,76,77,78,79"/>
  <line x1="641.3333333333334" x2="683" y1="121.5" y2="121.5" class="net_80,81,82,83,84,85,86,87"/>
  <line x1="891.3333333333334" x2="908" y1="302.5" y2="302.5" class="net_88,89,90"/>
  <line x1="908" x2="908" y1="302.5" y2="312.5" class="net_88,89,90"/>
  <line x1="908" x2="933" y1="312.5" y2="312.5" class="net_88,89,90"/>
  <line x1="831.3333333333334" x2="843" y1="245" y2="245" class="net_16,17,18"/>
  <line x1="843" x2="843" y1="245" y2="292.5" class="net_16,17,18"/>
  <line x1="843" x2="871.3333333333334" y1="292.5" y2="292.5" class="net_16,17,18"/>
  <line x1="833" x2="871.3333333333334" y1="312.5" y2="312.5" class="net_100,101,102"/>
  <line x1="581" x2="593" y1="212.5" y2="212.5" class="net_3"/>
  <line x1="593" x2="593" y1="212.5" y2="384.5" class="net_3"/>
  <line x1="593" x2="881.3333333333334" y1="384.5" y2="384.5" class="net_3"/>
  <circle cx="593" cy="212.5" r="2" style="fill:#000" class="net_3"/>
  <line x1="881.3333333333334" x2="881.3333333333334" y1="384.5" y2="317.5" class="net_3"/>
  <line x1="581" x2="593" y1="212.5" y2="212.5" class="net_3"/>
  <line x1="593" x2="593" y1="212.5" y2="151.5" class="net_3"/>
  <line x1="593" x2="631.3333333333334" y1="151.5" y2="151.5" class="net_3"/>
  <line x1="631.3333333333334" x2="631.3333333333334" y1="151.5" y2="136.5" class="net_3"/>
  <line x1="581" x2="816.3333333333334" y1="212.5" y2="212.5" class="net_3"/>
  <line x1="816.3333333333334" x2="816.3333333333334" y1="212.5" y2="136.5" class="net_3"/>
  <line x1="583" x2="621.3333333333334" y1="111.5" y2="111.5" class="net_64,65,66,67,68,69,70,71"/>
  <line x1="583" x2="593" y1="54" y2="54" class="net_103,104,105,106,107,108,109,110"/>
  <line x1="593" x2="593" y1="54" y2="131.5" class="net_103,104,105,106,107,108,109,110"/>
  <circle cx="593" cy="54" r="2" style="fill:#000" class="net_103,104,105,106,107,108,109,110"/>
  <line x1="593" x2="621.3333333333334" y1="131.5" y2="131.5" class="net_103,104,105,106,107,108,109,110"/>
  <line x1="583" x2="593" y1="54" y2="54" class="net_103,104,105,106,107,108,109,110"/>
  <line x1="593" x2="593" y1="54" y2="12" class="net_103,104,105,106,107,108,109,110"/>
  <line x1="593" x2="778" y1="12" y2="12" class="net_103,104,105,106,107,108,109,110"/>
  <line x1="778" x2="778" y1="12" y2="131.5" class="net_103,104,105,106,107,108,109,110"/>
  <line x1="778" x2="806.3333333333334" y1="131.5" y2="131.5" class="net_103,104,105,106,107,108,109,110"/>
  <line x1="898" x2="908" y1="161.5" y2="161.5" class="net_5,6,7,8,9,10,11,12"/>
  <line x1="908" x2="908" y1="161.5" y2="201.5" class="net_5,6,7,8,9,10,11,12"/>
  <line x1="908" x2="733" y1="201.5" y2="201.5" class="net_5,6,7,8,9,10,11,12"/>
  <line x1="733" x2="733" y1="201.5" y2="101.5" class="net_5,6,7,8,9,10,11,12"/>
  <circle cx="908" cy="161.5" r="2" style="fill:#000" class="net_5,6,7,8,9,10,11,12"/>
  <line x1="733" x2="748" y1="101.5" y2="101.5" class="net_5,6,7,8,9,10,11,12"/>
  <line x1="898" x2="933" y1="161.5" y2="161.5" class="net_5,6,7,8,9,10,11,12"/>
  <line x1="708" x2="758" y1="353.5" y2="353.5" class="net_43"/>
  <line x1="758" x2="758" y1="353.5" y2="126.5" class="net_43"/>
  <line x1="768" x2="806.3333333333334" y1="111.5" y2="111.5" class="net_91,92,93,94,95,96,97,98"/>
  <line x1="342" x2="410" y1="119" y2="119" class="net_4"/>
  <line x1="70" x2="155" y1="373" y2="373" class="net_44,45,46,47"/>
  <line x1="155" x2="155" y1="373" y2="139" class="net_44,45,46,47"/>
  <circle cx="155" cy="139" r="2" style="fill:#000" class="net_44,45,46,47"/>
  <line x1="155" x2="410" y1="139" y2="139" class="net_44,45,46,47"/>
  <line x1="70" x2="155" y1="373" y2="373" class="net_44,45,46,47"/>
  <line x1="155" x2="155" y1="373" y2="74" class="net_44,45,46,47"/>
  <line x1="155" x2="177" y1="74" y2="74" class="net_44,45,46,47"/>
</svg>
