<svg xmlns="http://www.w3.org/2000/svg" xmlns:xlink="http://www.w3.org/1999/xlink" xmlns:s="https://github.com/nturley/netlistsvg" width="596" height="419"><rect width="100%" height="100%" fill="white"/>
  <style>svg {
    stroke:#000;
    fill:none;
  }
  text {
    fill:#000;
    stroke:none;
    font-size:10px;
    font-weight: bold;
    font-family: "Courier New", monospace;
  }
  .nodelabel {
    text-anchor: middle;
  }
  .inputPortLabel {
    text-anchor: end;
  }
  .splitjoinBody {
    fill:#000;
  }</style>
  <g s:type="add" transform="translate(88.33333333333333,251)" s:width="25" s:height="25" id="cell_$add$sv2v.v:21$2">
    <s:alias val="$add"/>
    <circle r="12.5" cx="12.5" cy="12.5" class="cell_$add$sv2v.v:21$2"/>
    <line x1="7.5" x2="17.5" y1="12.5" y2="12.5" class="cell_$add$sv2v.v:21$2"/>
    <line x1="12.5" x2="12.5" y1="7.5" y2="17.5" class="cell_$add$sv2v.v:21$2"/>
    <g s:x="3" s:y="5" s:pid="A"/>
    <g s:x="3" s:y="20" s:pid="B"/>
    <g s:x="25" s:y="12.5" s:pid="Y"/>
  </g>
  <g s:type="not" transform="translate(296,263.5)" s:width="30" s:height="20" id="cell_$eq$sv2v.v:22$3">
    <s:alias val="$_NOT_"/>
    <s:alias val="$not"/>
    <s:alias val="$logic_not"/>
    <path d="M0,0 L0,20 L20,10 Z" class="cell_$eq$sv2v.v:22$3"/>
    <circle cx="23" cy="10" r="3" class="cell_$eq$sv2v.v:22$3"/>
    <g s:x="0" s:y="10" s:pid="A"/>
    <g s:x="25" s:y="10" s:pid="Y"/>
  </g>
  <g s:type="dff" transform="translate(471,70.5)" s:width="30" s:height="40" id="cell_$procdff$15">
    <s:alias val="$dff"/>
    <s:alias val="$_DFF_"/>
    <s:alias val="$_DFF_P_"/>
    <rect width="30" height="40" x="0" y="0" class="cell_$procdff$15"/>
    <path d="M0,35 L5,30 L0,25" class="cell_$procdff$15"/>
    <g s:x="30" s:y="10" s:pid="Q"/>
    <g s:x="0" s:y="30" s:pid="CLK"/>
    <g s:x="0" s:y="30" s:pid="C"/>
    <g s:x="0" s:y="10" s:pid="D"/>
  </g>
  <g s:type="dff" transform="translate(296,70.5)" s:width="30" s:height="40" id="cell_$procdff$16">
    <s:alias val="$dff"/>
    <s:alias val="$_DFF_"/>
    <s:alias val="$_DFF_P_"/>
    <rect width="30" height="40" x="0" y="0" class="cell_$procdff$16"/>
    <path d="M0,35 L5,30 L0,25" class="cell_$procdff$16"/>
    <g s:x="30" s:y="10" s:pid="Q"/>
    <g s:x="0" s:y="30" s:pid="CLK"/>
    <g s:x="0" s:y="30" s:pid="C"/>
    <g s:x="0" s:y="10" s:pid="D"/>
  </g>
  <g s:type="dff" transform="translate(231,263.5)" s:width="30" s:height="40" id="cell_$procdff$17">
    <s:alias val="$dff"/>
    <s:alias val="$_DFF_"/>
    <s:alias val="$_DFF_P_"/>
    <rect width="30" height="40" x="0" y="0" class="cell_$procdff$17"/>
    <path d="M0,35 L5,30 L0,25" class="cell_$procdff$17"/>
    <g s:x="30" s:y="10" s:pid="Q"/>
    <g s:x="0" s:y="30" s:pid="CLK"/>
    <g s:x="0" s:y="30" s:pid="C"/>
    <g s:x="0" s:y="10" s:pid="D"/>
  </g>
  <g s:type="mux" transform="translate(361,50.5)" s:width="20" s:height="40" id="cell_$procmux$10">
    <s:alias val="$pmux"/>
    <s:alias val="$mux"/>
    <s:alias val="$_MUX_"/>
    <path d="M0,0 L20,10 L20,30 L0,40 Z" class="cell_$procmux$10"/>
    <g s:x="0" s:y="10" s:pid="A"/>
    <g s:x="0" s:y="30" s:pid="B"/>
    <g s:x="10" s:y="35" s:pid="S"/>
    <g s:x="20" s:y="20" s:pid="Y"/>
  </g>
  <g s:type="mux" transform="translate(416,60.5)" s:width="20" s:height="40" id="cell_$procmux$13">
    <s:alias val="$pmux"/>
    <s:alias val="$mux"/>
    <s:alias val="$_MUX_"/>
    <path d="M0,0 L20,10 L20,30 L0,40 Z" class="cell_$procmux$13"/>
    <g s:x="0" s:y="10" s:pid="A"/>
    <g s:x="0" s:y="30" s:pid="B"/>
    <g s:x="10" s:y="35" s:pid="S"/>
    <g s:x="20" s:y="20" s:pid="Y"/>
  </g>
  <g s:type="mux" transform="translate(175.66666666666666,253.5)" s:width="20" s:height="40" id="cell_$procmux$5">
    <s:alias val="$pmux"/>
    <s:alias val="$mux"/>
    <s:alias val="$_MUX_"/>
    <path d="M0,0 L20,10 L20,30 L0,40 Z" class="cell_$procmux$5"/>
    <g s:x="0" s:y="10" s:pid="A"/>
    <g s:x="0" s:y="30" s:pid="B"/>
    <g s:x="10" s:y="35" s:pid="S"/>
    <g s:x="20" s:y="20" s:pid="Y"/>
  </g>
  <g s:type="mux" transform="translate(234.33333333333334,60.5)" s:width="20" s:height="40" id="cell_$procmux$8">
    <s:alias val="$pmux"/>
    <s:alias val="$mux"/>
    <s:alias val="$_MUX_"/>
    <path d="M0,0 L20,10 L20,30 L0,40 Z" class="cell_$procmux$8"/>
    <g s:x="0" s:y="10" s:pid="A"/>
    <g s:x="0" s:y="30" s:pid="B"/>
    <g s:x="10" s:y="35" s:pid="S"/>
    <g s:x="20" s:y="20" s:pid="Y"/>
  </g>
  <g s:type="inputExt" transform="translate(166,200)" s:width="30" s:height="20" id="cell_clk">
    <text x="15" y="-4" class="nodelabel cell_clk" s:attribute="ref">clk</text>
    <s:alias val="$_inputExt_"/>
    <path d="M0,0 L0,20 L15,20 L30,10 L15,0 Z" class="cell_clk"/>
    <g s:x="28" s:y="10" s:pid="Y"/>
  </g>
  <g s:type="inputExt" transform="translate(77,386)" s:width="30" s:height="20" id="cell_rst">
    <text x="15" y="-4" class="nodelabel cell_rst" s:attribute="ref">rst</text>
    <s:alias val="$_inputExt_"/>
    <path d="M0,0 L0,20 L15,20 L30,10 L15,0 Z" class="cell_rst"/>
    <g s:x="28" s:y="10" s:pid="Y"/>
  </g>
  <g s:type="inputExt" transform="translate(77,103)" s:width="30" s:height="20" id="cell_serial_in">
    <text x="15" y="-4" class="nodelabel cell_serial_in" s:attribute="ref">serial_in</text>
    <s:alias val="$_inputExt_"/>
    <path d="M0,0 L0,20 L15,20 L30,10 L15,0 Z" class="cell_serial_in"/>
    <g s:x="28" s:y="10" s:pid="Y"/>
  </g>
  <g s:type="outputExt" transform="translate(536,70.5)" s:width="30" s:height="20" id="cell_byte_out">
    <text x="15" y="-4" class="nodelabel cell_byte_out" s:attribute="ref">byte_out</text>
    <s:alias val="$_outputExt_"/>
    <path d="M30,0 L30,20 L15,20 L0,10 L15,0 Z" class="cell_byte_out"/>
    <g s:x="0" s:y="10" s:pid="A"/>
  </g>
  <g s:type="constant" transform="translate(12,261)" s:width="30" s:height="20" id="cell_1">
    <text x="15" y="-4" class="nodelabel cell_1" s:attribute="ref">1</text>
    <s:alias val="$_constant_"/>
    <rect width="30" height="20" class="cell_1"/>
    <g s:x="30" s:y="10" s:pid="Y"/>
  </g>
  <g s:type="constant" transform="translate(166,135)" s:width="30" s:height="20" id="cell_00000000">
    <text x="15" y="-4" class="nodelabel cell_00000000" s:attribute="ref">0x0</text>
    <s:alias val="$_constant_"/>
    <rect width="30" height="20" class="cell_00000000"/>
    <g s:x="30" s:y="10" s:pid="Y"/>
  </g>
  <g s:type="constant" transform="translate(77,321)" s:width="30" s:height="20" id="cell_000">
    <text x="15" y="-4" class="nodelabel cell_000" s:attribute="ref">000</text>
    <s:alias val="$_constant_"/>
    <rect width="30" height="20" class="cell_000"/>
    <g s:x="30" s:y="10" s:pid="Y"/>
  </g>
  <g s:type="join" transform="translate(185,50)" s:width="4" s:height="40" id="cell_$join$,37,38,39,40,41,42,43,4,">
    <rect width="5" height="40" class="splitjoinBody" s:generic="body"/>
    <s:alias val="$_join_"/>
    <g s:x="5" s:y="20" s:pid="out"/>
    <g transform="translate(0,10)" s:x="0" s:y="10" s:pid="in0">
      <text x="-3" y="-4" class="inputPortLabel">0:6</text>
    </g>
    <g transform="translate(0,30)" s:x="0" s:y="10" s:pid="in0">
      <text x="-3" y="-4" class="inputPortLabel">7</text>
    </g>
  </g>
  <g s:type="split" transform="translate(102,50)" s:width="5" s:height="40" id="cell_$split$,36,37,38,39,40,41,42,43,">
    <rect width="5" height="20" class="splitjoinBody" s:generic="body"/>
    <s:alias val="$_split_"/>
    <g s:x="0" s:y="20" s:pid="in"/>
    <g transform="translate(4,10)" s:x="4" s:y="10" s:pid="out0">
      <text x="5" y="-4">1:7</text>
    </g>
  </g>
  <line x1="261" x2="271" y1="273.5" y2="273.5" class="net_13,14,15"/>
  <line x1="271" x2="271" y1="273.5" y2="241" class="net_13,14,15"/>
  <line x1="271" x2="52" y1="241" y2="241" class="net_13,14,15"/>
  <line x1="52" x2="52" y1="241" y2="256" class="net_13,14,15"/>
  <circle cx="271" cy="273.5" r="2" style="fill:#000" class="net_13,14,15"/>
  <line x1="52" x2="91.33333333333333" y1="256" y2="256" class="net_13,14,15"/>
  <line x1="261" x2="296" y1="273.5" y2="273.5" class="net_13,14,15"/>
  <line x1="42" x2="91.33333333333333" y1="271" y2="271" class="net_55"/>
  <line x1="194" x2="446" y1="210" y2="210" class="net_2"/>
  <line x1="446" x2="446" y1="210" y2="100.5" class="net_2"/>
  <line x1="446" x2="471" y1="100.5" y2="100.5" class="net_2"/>
  <line x1="194" x2="216" y1="210" y2="210" class="net_2"/>
  <line x1="216" x2="216" y1="210" y2="110.5" class="net_2"/>
  <line x1="216" x2="271" y1="110.5" y2="110.5" class="net_2"/>
  <line x1="271" x2="271" y1="110.5" y2="100.5" class="net_2"/>
  <circle cx="216" cy="210" r="2" style="fill:#000" class="net_2"/>
  <line x1="271" x2="296" y1="100.5" y2="100.5" class="net_2"/>
  <line x1="194" x2="216" y1="210" y2="210" class="net_2"/>
  <line x1="216" x2="216" y1="210" y2="293.5" class="net_2"/>
  <line x1="216" x2="231" y1="293.5" y2="293.5" class="net_2"/>
  <line x1="436" x2="471" y1="80.5" y2="80.5" class="net_20,21,22,23,24,25,26,27"/>
  <line x1="254.33333333333334" x2="296" y1="80.5" y2="80.5" class="net_28,29,30,31,32,33,34,35"/>
  <line x1="195.66666666666666" x2="231" y1="273.5" y2="273.5" class="net_44,45,46"/>
  <line x1="501" x2="511" y1="80.5" y2="80.5" class="net_5,6,7,8,9,10,11,12"/>
  <line x1="511" x2="511" y1="80.5" y2="40.5" class="net_5,6,7,8,9,10,11,12"/>
  <line x1="511" x2="346" y1="40.5" y2="40.5" class="net_5,6,7,8,9,10,11,12"/>
  <line x1="346" x2="346" y1="40.5" y2="60.5" class="net_5,6,7,8,9,10,11,12"/>
  <circle cx="511" cy="80.5" r="2" style="fill:#000" class="net_5,6,7,8,9,10,11,12"/>
  <line x1="346" x2="361" y1="60.5" y2="60.5" class="net_5,6,7,8,9,10,11,12"/>
  <line x1="501" x2="536" y1="80.5" y2="80.5" class="net_5,6,7,8,9,10,11,12"/>
  <line x1="326" x2="361" y1="80.5" y2="80.5" class="net_36,37,38,39,40,41,42,43"/>
  <line x1="326" x2="336" y1="80.5" y2="80.5" class="net_36,37,38,39,40,41,42,43"/>
  <line x1="336" x2="336" y1="80.5" y2="12" class="net_36,37,38,39,40,41,42,43"/>
  <line x1="336" x2="141" y1="12" y2="12" class="net_36,37,38,39,40,41,42,43"/>
  <line x1="141" x2="141" y1="12" y2="83" class="net_36,37,38,39,40,41,42,43"/>
  <line x1="141" x2="102.5" y1="83" y2="83" class="net_36,37,38,39,40,41,42,43"/>
  <circle cx="336" cy="80.5" r="2" style="fill:#000" class="net_36,37,38,39,40,41,42,43"/>
  <line x1="102.5" x2="102.5" y1="83" y2="71" class="net_36,37,38,39,40,41,42,43"/>
  <line x1="321" x2="371" y1="273.5" y2="273.5" class="net_19"/>
  <line x1="371" x2="371" y1="273.5" y2="85.5" class="net_19"/>
  <line x1="381" x2="416" y1="70.5" y2="70.5" class="net_47,48,49,50,51,52,53,54"/>
  <line x1="196" x2="391" y1="145" y2="145" class="net_56,57,58,59,60,61,62,63"/>
  <line x1="391" x2="391" y1="145" y2="90.5" class="net_56,57,58,59,60,61,62,63"/>
  <line x1="391" x2="416" y1="90.5" y2="90.5" class="net_56,57,58,59,60,61,62,63"/>
  <line x1="196" x2="206" y1="145" y2="145" class="net_56,57,58,59,60,61,62,63"/>
  <line x1="206" x2="206" y1="145" y2="90.5" class="net_56,57,58,59,60,61,62,63"/>
  <circle cx="206" cy="145" r="2" style="fill:#000" class="net_56,57,58,59,60,61,62,63"/>
  <line x1="206" x2="234.33333333333334" y1="90.5" y2="90.5" class="net_56,57,58,59,60,61,62,63"/>
  <line x1="105" x2="141" y1="396" y2="396" class="net_3"/>
  <line x1="141" x2="141" y1="396" y2="406" class="net_3"/>
  <line x1="141" x2="426" y1="406" y2="406" class="net_3"/>
  <circle cx="141" cy="396" r="2" style="fill:#000" class="net_3"/>
  <line x1="426" x2="426" y1="406" y2="95.5" class="net_3"/>
  <line x1="105" x2="185.66666666666666" y1="396" y2="396" class="net_3"/>
  <line x1="185.66666666666666" x2="185.66666666666666" y1="396" y2="288.5" class="net_3"/>
  <line x1="105" x2="141" y1="396" y2="396" class="net_3"/>
  <line x1="141" x2="141" y1="396" y2="230" class="net_3"/>
  <line x1="141" x2="244.33333333333334" y1="230" y2="230" class="net_3"/>
  <line x1="244.33333333333334" x2="244.33333333333334" y1="230" y2="95.5" class="net_3"/>
  <line x1="113.33333333333333" x2="175.66666666666666" y1="263.5" y2="263.5" class="net_16,17,18"/>
  <line x1="107" x2="151" y1="331" y2="331" class="net_64,65,66"/>
  <line x1="151" x2="151" y1="331" y2="283.5" class="net_64,65,66"/>
  <line x1="151" x2="175.66666666666666" y1="283.5" y2="283.5" class="net_64,65,66"/>
  <line x1="191" x2="234.33333333333334" y1="70.5" y2="70.5" class="net_37,38,39,40,41,42,43,4"/>
  <line x1="107" x2="185" y1="60.5" y2="60.5" class="net_37,38,39,40,41,42,43"/>
  <line x1="105" x2="151" y1="113" y2="113" class="net_4"/>
  <line x1="151" x2="151" y1="113" y2="80.5" class="net_4"/>
  <line x1="151" x2="185" y1="80.5" y2="80.5" class="net_4"/>
</svg>
